<svg xmlns="http://www.w3.org/2000/svg" version="1.1" xmlns:xlink="http://www.w3.org/1999/xlink" xmlns:svgjs="http://svgjs.dev/svgjs" viewBox="0 0 1920 1080"><rect width="1920" height="1080" fill="#97949e"></rect><g transform="matrix(-2.112515728529184e-16,-1.15,1.15,-2.112515728529184e-16,297.075866699219,1595.7872467041018)"><path d="M0,-1080C1.5649791206713815,-991.6624634202083,23.332122252462938,-704.5114795106142,9.389874724028289,-549.9747805212495C-4.55237280440636,-395.4380815318848,-79.29303364434007,-301.517164103832,-83.6534851706079,-152.77980606381158C-88.01393669687572,-4.042448023791195,-17.747705191608844,194.10020126025114,-16.77283443357868,342.4493677188729C-15.797963675548516,490.7985341774947,-67.86575659002486,606.1800970913293,-77.80426062242691,737.3151926879191C-87.74276465482896,868.4502882845088,-80.78873322953459,973.2710949356912,-76.40385862799099,1129.2599412984111C-72.01898402644738,1285.2487876611312,-64.2289894511638,1501.4582610806408,-51.495013013165305,1673.248270864239C-38.761036575166806,1845.0382806478372,-8.582502168860884,2078.8747118107067,0,2160L 1920 2160 L 1920 -1080 Z" fill="url(&quot;#SvgjsLinearGradient1161&quot;)"></path><path d="M960,-1080C942.1924292340349,-944.4615248008648,835.094407569995,-517.5447092587251,853.1545754042095,-266.76914880518893C871.2147432384239,-15.99358835165279,1059.4897579229691,157.0642378461252,1068.3610070052864,424.65336272121687C1077.2322560876037,692.2424875963086,924.4422377323273,1049.5411608988973,906.3820698981128,1338.765600445361C888.3219020638984,1627.990039991825,951.0636783163521,2023.1276000742268,960,2160L 1920 2160 L 1920 -1080 Z" fill="url(&quot;#SvgjsLinearGradient1162&quot;)"></path></g><defs><linearGradient x1="0.1" y1="0" x2="0" y2="1" id="SvgjsLinearGradient1161"><stop stop-color="#97949e" offset="0"></stop><stop stop-color="#95949e" offset="0"></stop></linearGradient><linearGradient x1="0.1" y1="0" x2="0" y2="1" id="SvgjsLinearGradient1162"><stop stop-color="#cdcbd0" offset="0"></stop><stop stop-color="#cccbd0" offset="0.5"></stop></linearGradient></defs></svg>